<?xml version="1.0" standalone="no"?>
<!DOCTYPE svg PUBLIC "-//W3C//DTD SVG 20010904//EN"
 "http://www.w3.org/TR/2001/REC-SVG-20010904/DTD/svg10.dtd">
<svg version="1.0" xmlns="http://www.w3.org/2000/svg"
 width="1200.000000pt" height="1200.000000pt" viewBox="0 0 1200.000000 1200.000000"
 preserveAspectRatio="xMidYMid meet">

<g transform="translate(0.000000,1200.000000) scale(0.100000,-0.100000)"
fill="#000000" stroke="none">
<path d="M2060 8110 c-436 -64 -841 -261 -1174 -570 -114 -106 -291 -333 -377
-485 -272 -482 -348 -1053 -210 -1585 20 -79 55 -191 71 -225 5 -11 27 -63 50
-115 156 -360 435 -687 785 -919 173 -115 469 -239 690 -289 623 -142 1297 15
1799 418 155 125 334 319 438 475 229 343 358 768 358 1175 -1 393 -91 729
-291 1090 -101 181 -305 418 -484 563 -322 259 -665 410 -1065 468 -169 24
-424 24 -590 -1z m-167 -642 c12 -14 17 -37 17 -81 l0 -60 38 53 c66 96 172
141 222 95 18 -17 21 -29 18 -82 -3 -72 11 -82 53 -37 34 37 97 67 124 60 33
-8 55 -33 55 -62 l0 -24 663 -2 663 -3 37 -25 c21 -14 46 -43 57 -66 20 -40
20 -58 18 -851 l-3 -810 -29 -37 c-16 -21 -47 -47 -70 -57 -39 -18 -82 -19
-879 -19 -794 0 -838 -1 -833 -17 3 -10 8 -40 12 -67 l7 -48 -431 4 -430 4 -6
-29 c-3 -16 -6 -80 -6 -142 l0 -112 -37 -7 c-73 -12 -119 -7 -147 15 -26 20
-27 25 -22 83 2 33 9 117 15 186 11 140 17 179 38 265 33 137 90 255 163 338
24 26 41 49 39 51 -2 1 -19 9 -38 16 -48 19 -124 98 -157 161 -22 44 -29 72
-33 149 l-6 94 -33 7 c-91 19 -135 149 -73 216 19 20 18 22 -6 134 -20 92 -25
144 -27 269 -1 152 0 156 28 214 25 50 35 61 80 82 59 28 92 29 160 9 27 -8
50 -14 51 -13 15 31 65 83 98 102 86 51 196 43 342 -24 l68 -31 41 47 c71 83
118 98 159 52z"/>
<path d="M2882 6818 c-5 -7 -71 -227 -145 -488 l-135 -475 41 -5 c23 -3 45 0
48 5 6 10 269 926 269 938 0 3 -7 13 -16 21 -19 19 -48 21 -62 4z"/>
<path d="M1325 6714 c-38 -9 -59 -23 -90 -57 l-40 -45 -85 54 c-47 29 -95 53
-107 54 -25 0 -47 -32 -39 -58 3 -9 53 -46 111 -81 98 -60 108 -69 132 -118
35 -76 85 -108 168 -108 50 0 69 5 103 28 23 15 51 45 62 67 l20 40 70 0 70 0
20 -40 c24 -48 84 -90 137 -97 87 -12 179 45 203 124 11 34 23 45 121 103 112
67 136 93 109 125 -21 25 -45 18 -142 -41 -58 -36 -94 -52 -96 -44 -3 7 -18
27 -34 45 -84 97 -262 63 -307 -57 -10 -27 -13 -28 -81 -28 -64 0 -71 2 -79
23 -11 29 -57 84 -81 97 -40 21 -96 27 -145 14z m90 -88 c40 -17 55 -42 55
-91 0 -51 -44 -95 -95 -95 -100 0 -131 146 -40 186 38 17 39 17 80 0z m513 -1
c27 -8 52 -53 52 -95 0 -46 -47 -90 -95 -90 -101 0 -133 146 -42 185 31 14 37
14 85 0z"/>
<path d="M1477 6323 c-14 -13 -6 -43 20 -74 68 -80 199 -80 266 1 58 68 5 111
-55 45 -26 -29 -42 -37 -70 -38 -45 -1 -81 17 -99 49 -12 23 -47 32 -62 17z"/>
<path d="M2530 5605 c-15 -62 -5 -85 35 -85 29 0 38 13 58 83 l16 57 -48 0
-48 0 -13 -55z"/>
</g>
</svg>
